<?xml version="1.0" encoding="UTF-8" standalone="no"?>
<svg
   xmlns:dc="http://purl.org/dc/elements/1.1/"
   xmlns:cc="http://creativecommons.org/ns#"
   xmlns:rdf="http://www.w3.org/1999/02/22-rdf-syntax-ns#"
   xmlns:svg="http://www.w3.org/2000/svg"
   xmlns="http://www.w3.org/2000/svg"
   xmlns:sodipodi="http://sodipodi.sourceforge.net/DTD/sodipodi-0.dtd"
   xmlns:inkscape="http://www.inkscape.org/namespaces/inkscape"
   id="Layer_1"
   data-name="Layer 1"
   viewBox="0 0 815.70872 108.06334"
   version="1.1"
   sodipodi:docname="2020_Etherisc_FlightDelayProtection.svg"
   width="815.70868"
   height="108.06334"
   inkscape:version="0.92.3 (2405546, 2018-03-11)">
  <metadata
     id="metadata842">
    <rdf:RDF>
      <cc:Work
         rdf:about="">
        <dc:format>image/svg+xml</dc:format>
        <dc:type
           rdf:resource="http://purl.org/dc/dcmitype/StillImage" />
        <dc:title>old_logo_vr.2</dc:title>
      </cc:Work>
    </rdf:RDF>
  </metadata>
  <sodipodi:namedview
     pagecolor="#ffffff"
     bordercolor="#666666"
     borderopacity="1"
     objecttolerance="10"
     gridtolerance="10"
     guidetolerance="10"
     inkscape:pageopacity="1"
     inkscape:pageshadow="2"
     inkscape:window-width="2560"
     inkscape:window-height="1362"
     id="namedview840"
     showgrid="false"
     inkscape:snap-bbox="true"
     inkscape:bbox-nodes="true"
     fit-margin-top="10"
     fit-margin-left="10"
     fit-margin-right="10"
     fit-margin-bottom="10"
     inkscape:zoom="0.98480454"
     inkscape:cx="419.91995"
     inkscape:cy="155.1309"
     inkscape:window-x="1600"
     inkscape:window-y="0"
     inkscape:window-maximized="1"
     inkscape:current-layer="Layer_1" />
  <defs
     id="defs817">
    <style
       id="style815">.cls-1{fill:#5081f4;}</style>
  </defs>
  <title
     id="title819">old_logo_vr.2</title>
  <path
     class="cls-1"
     d="m 106.71879,39.86403 v 0 l -0.30621,-0.28758 v 0 l -1.45815,-1.37741 v 0 l -3.80576,-3.52677 v 0 L 97.911588,31.645 v 0 L 97.372074,31.13037 95.286926,31.50877 75.28117,34.91445 63.834729,18.56719 A 2.1726367,2.2553171 0 0 0 62.624468,17.7801 L 21.927628,10.87791 16.72205,10 l 2.81422,3.81437 v 0 l 2.012241,2.73968 H 10 l 5.32223,5.14635 v 0 L 47.241034,52.79048 40.38775,86.66566 38.083881,98.06334 38.492162,97.3822 45.782888,85.43962 v 0 L 55.479555,69.56157 84.875768,54.62198 a 4.8410429,5.0252704 0 0 0 2.478847,-2.22504 l 5.526372,-9.26345 H 110.26208 Z M 19.317548,20.33814 h 5.016021 L 34.905124,35.4745 Z m 5.832582,-5.05555 34.601791,5.8275 -10.906927,27.50276 z m 20.326548,63.93598 4.184877,-20.04054 2.814221,8.38554 z M 55.435811,65.33853 51.790448,54.24358 H 77.599622 Z M 51.994588,50.45948 62.755701,23.4865 81.580359,50.45948 Z m 33.158227,-1.43794 -7.42196,-10.59545 15.310528,-2.73968 z m 10.017459,-9.70241 1.968497,-3.31486 3.587039,3.31486 z"
     id="path837"
     inkscape:connector-curvature="0"
     style="fill:#5081f4;stroke-width:1.48563159" />
  <flowRoot
     xml:space="preserve"
     id="flowRoot844"
     style="font-style:normal;font-variant:normal;font-weight:normal;font-stretch:normal;font-size:24px;line-height:1;font-family:'DIN Condensed';-inkscape-font-specification:'DIN Condensed, ';font-variant-ligatures:normal;font-variant-position:normal;font-variant-caps:normal;font-variant-numeric:normal;font-variant-alternates:normal;font-feature-settings:normal;text-indent:0;text-align:start;text-decoration:none;text-decoration-line:none;text-decoration-style:solid;text-decoration-color:#000000;letter-spacing:33.32999802px;word-spacing:0px;text-transform:none;writing-mode:lr-tb;direction:ltr;text-orientation:mixed;dominant-baseline:auto;baseline-shift:baseline;text-anchor:start;white-space:normal;shape-padding:0;opacity:1;vector-effect:none;fill:#231f20;fill-opacity:1;stroke:none;stroke-width:1.33333325;stroke-linecap:butt;stroke-linejoin:miter;stroke-miterlimit:4;stroke-dasharray:none;stroke-dashoffset:0;stroke-opacity:1"
     transform="translate(50.617196,-183.59159)"><flowRegion
       id="flowRegion846"><rect
         id="rect848"
         width="2161.2324"
         height="720.88947"
         x="-608.87872"
         y="181.67899" /></flowRegion><flowPara
       id="flowPara850" /></flowRoot>  <g
     aria-label="ETHERISC FLIGHTDELAY PROTECTION"
     transform="matrix(1.0827919,0,0,1.0827919,511.66196,-217.16975)"
     style="font-style:normal;font-variant:normal;font-weight:normal;font-stretch:normal;font-size:24px;line-height:1;font-family:'DIN Condensed';-inkscape-font-specification:'DIN Condensed, ';font-variant-ligatures:normal;font-variant-position:normal;font-variant-caps:normal;font-variant-numeric:normal;font-variant-alternates:normal;font-feature-settings:normal;text-indent:0;text-align:start;text-decoration:none;text-decoration-line:none;text-decoration-style:solid;text-decoration-color:#000000;letter-spacing:33.32999802px;word-spacing:0px;text-transform:none;writing-mode:lr-tb;direction:ltr;text-orientation:mixed;dominant-baseline:auto;baseline-shift:baseline;text-anchor:start;white-space:normal;shape-padding:0;opacity:1;vector-effect:none;fill:#000006;fill-opacity:1;stroke:none;stroke-width:1.33333325;stroke-linecap:butt;stroke-linejoin:miter;stroke-miterlimit:4;stroke-dasharray:none;stroke-dashoffset:0;stroke-opacity:1"
     id="flowRoot852">
    <path
       d="m -349.52413,233.37695 h 14.59201 v 4.608 h -9.696 v 10.032 h 8.448 v 4.608 h -8.448 v 10.032 h 9.696 v 4.896 h -14.59201 z"
       style="font-size:48px;letter-spacing:3.09597063px;fill:#000006;fill-opacity:1;stroke:none;stroke-opacity:1"
       id="path917" />
    <path
       d="m -325.4934,237.98495 h -5.664 v -4.608 h 16.224 v 4.608 h -5.664 v 29.568 h -4.896 z"
       style="font-size:48px;letter-spacing:3.09597063px;fill:#000006;fill-opacity:1;stroke:none;stroke-opacity:1"
       id="path919" />
    <path
       d="m -309.67593,233.37695 h 4.896 v 14.64 h 6.048 v -14.64 h 4.896 v 34.176 h -4.896 v -15.216 h -6.048 v 15.216 h -4.896 z"
       style="font-size:48px;letter-spacing:3.09597063px;fill:#000006;fill-opacity:1;stroke:none;stroke-opacity:1"
       id="path921" />
    <path
       d="m -286.14246,233.37695 h 14.592 v 4.608 h -9.696 v 10.032 h 8.448 v 4.608 h -8.448 v 10.032 h 9.696 v 4.896 h -14.592 z"
       style="font-size:48px;letter-spacing:3.09597063px;fill:#000006;fill-opacity:1;stroke:none;stroke-opacity:1"
       id="path923" />
    <path
       d="m -260.43174,248.64095 h 2.784 q 1.296,0 2.064,-0.336 0.768,-0.384 1.152,-1.056 0.432,-0.672 0.576,-1.632 0.144,-1.008 0.144,-2.304 0,-1.296 -0.144,-2.256 -0.144,-1.008 -0.624,-1.68 -0.432,-0.72 -1.248,-1.056 -0.816,-0.336 -2.16,-0.336 h -2.544 z m -4.896,-15.264 h 7.872 q 8.64,0 8.64,10.032 0,2.976 -0.96,5.136 -0.912,2.112 -3.264,3.408 l 5.28,15.6 h -5.184 l -4.56,-14.592 h -2.928 v 14.592 h -4.896 z"
       style="font-size:48px;letter-spacing:3.09597063px;fill:#000006;fill-opacity:1;stroke:none;stroke-opacity:1"
       id="path925" />
    <path
       d="m -241.65027,233.37695 h 4.896 v 34.176 h -4.896 z"
       style="font-size:48px;letter-spacing:3.09597063px;fill:#000006;fill-opacity:1;stroke:none;stroke-opacity:1"
       id="path927" />
    <path
       d="m -213.1083,243.21695 h -4.896 v -1.104 q 0,-1.68 -0.816,-2.88 -0.768,-1.248 -2.64,-1.248 -1.008,0 -1.68,0.384 -0.624,0.384 -1.008,1.008 -0.336,0.576 -0.48,1.392 -0.144,0.768 -0.144,1.632 0,1.008 0.048,1.728 0.096,0.672 0.384,1.2 0.288,0.48 0.816,0.864 0.576,0.384 1.536,0.768 l 3.744,1.488 q 1.632,0.624 2.64,1.488 1.008,0.816 1.536,1.968 0.576,1.104 0.768,2.592 0.192,1.44 0.192,3.312 0,2.16 -0.432,4.032 -0.432,1.824 -1.44,3.168 -0.96,1.296 -2.592,2.064 -1.632,0.768 -3.984,0.768 -1.776,0 -3.312,-0.624 -1.536,-0.624 -2.64,-1.68 -1.104,-1.104 -1.776,-2.592 -0.624,-1.488 -0.624,-3.216 v -1.824 h 4.896 v 1.536 q 0,1.344 0.768,2.448 0.816,1.056 2.688,1.056 1.248,0 1.92,-0.336 0.72,-0.384 1.056,-1.008 0.384,-0.672 0.48,-1.632 0.096,-0.96 0.096,-2.112 0,-1.344 -0.096,-2.208 -0.096,-0.864 -0.432,-1.392 -0.288,-0.528 -0.864,-0.864 -0.528,-0.336 -1.44,-0.72 l -3.504,-1.44 q -3.168,-1.296 -4.272,-3.408 -1.056,-2.16 -1.056,-5.376 0,-1.92 0.528,-3.648 0.528,-1.728 1.536,-2.976 1.056,-1.248 2.64,-1.968 1.584,-0.768 3.696,-0.768 1.824,0 3.312,0.672 1.536,0.672 2.592,1.776 1.104,1.104 1.68,2.496 0.576,1.344 0.576,2.784 z"
       style="font-size:48px;letter-spacing:3.09597063px;fill:#000006;fill-opacity:1;stroke:none;stroke-opacity:1"
       id="path929" />
    <path
       d="m -190.80033,259.92095 q 0,1.584 -0.624,3.024 -0.576,1.44 -1.632,2.544 -1.056,1.056 -2.496,1.728 -1.392,0.624 -3.024,0.624 -1.392,0 -2.832,-0.384 -1.44,-0.384 -2.592,-1.296 -1.152,-0.96 -1.92,-2.496 -0.72,-1.536 -0.72,-3.888 v -18.816 q 0,-1.68 0.576,-3.12 0.576,-1.44 1.632,-2.496 1.056,-1.056 2.496,-1.632 1.488,-0.624 3.264,-0.624 1.68,0 3.12,0.624 1.44,0.576 2.496,1.68 1.056,1.056 1.632,2.592 0.624,1.488 0.624,3.264 v 1.92 h -4.896 v -1.632 q 0,-1.44 -0.816,-2.496 -0.816,-1.056 -2.208,-1.056 -1.824,0 -2.448,1.152 -0.576,1.104 -0.576,2.832 v 17.472 q 0,1.488 0.624,2.496 0.672,1.008 2.352,1.008 0.48,0 1.008,-0.144 0.576,-0.192 1.008,-0.576 0.48,-0.384 0.768,-1.056 0.288,-0.672 0.288,-1.68 v -1.68 h 4.896 z"
       style="font-size:48px;letter-spacing:3.09597063px;fill:#000006;fill-opacity:1;stroke:none;stroke-opacity:1"
       id="path931" />
    <path
       d="m -171.75414,233.37695 h 14.592 v 4.608 h -9.696 v 10.368 h 8.448 v 4.608 h -8.448 v 14.592 h -4.896 z"
       style="font-size:48px;letter-spacing:3.09597063px;fill:#000006;fill-opacity:1;stroke:none;stroke-opacity:1"
       id="path933" />
    <path
       d="m -150.93942,233.37695 h 4.896 v 29.28 h 9.696 v 4.896 h -14.592 z"
       style="font-size:48px;letter-spacing:3.09597063px;fill:#000006;fill-opacity:1;stroke:none;stroke-opacity:1"
       id="path935" />
    <path
       d="m -129.9807,233.37695 h 4.896 v 34.176 h -4.896 z"
       style="font-size:48px;letter-spacing:3.09597063px;fill:#000006;fill-opacity:1;stroke:none;stroke-opacity:1"
       id="path937" />
    <path
       d="m -117.56673,241.44095 q 0,-2.064 0.72,-3.648 0.72,-1.584 1.872,-2.592 1.2,-1.056 2.64,-1.584 1.488,-0.528 2.976,-0.528 1.488,0 2.928,0.528 1.488,0.528 2.64,1.584 1.2,1.008 1.92,2.592 0.72,1.584 0.72,3.648 v 1.728 h -4.896 v -1.728 q 0,-1.776 -1.008,-2.592 -0.96,-0.864 -2.304,-0.864 -1.344,0 -2.352,0.864 -0.96,0.816 -0.96,2.592 v 18.048 q 0,1.776 0.96,2.64 1.008,0.816 2.352,0.816 1.344,0 2.304,-0.816 1.008,-0.864 1.008,-2.64 v -6.432 h -3.888 v -4.32 h 8.784 v 10.752 q 0,2.112 -0.72,3.696 -0.72,1.536 -1.92,2.592 -1.152,1.008 -2.64,1.536 -1.44,0.528 -2.928,0.528 -1.488,0 -2.976,-0.528 -1.44,-0.528 -2.64,-1.536 -1.152,-1.056 -1.872,-2.592 -0.72,-1.584 -0.72,-3.696 z"
       style="font-size:48px;letter-spacing:3.09597063px;fill:#000006;fill-opacity:1;stroke:none;stroke-opacity:1"
       id="path939" />
    <path
       d="m -93.745255,233.37695 h 4.896 v 14.64 h 6.048 v -14.64 h 4.896 v 34.176 h -4.896 v -15.216 h -6.048 v 15.216 h -4.896 z"
       style="font-size:48px;letter-spacing:3.09597063px;fill:#000006;fill-opacity:1;stroke:none;stroke-opacity:1"
       id="path941" />
    <path
       d="m -66.995778,237.98495 h -5.664 v -4.608 h 16.224 v 4.608 h -5.664 v 29.568 h -4.896 z"
       style="font-size:48px;letter-spacing:3.09597063px;fill:#000006;fill-opacity:1;stroke:none;stroke-opacity:1"
       id="path943" />
    <path
       d="m -51.17833,233.37695 h 7.248 q 4.176,0 6.384,2.352 2.208,2.304 2.208,6.48 v 15.984 q 0,4.8 -2.352,7.104 -2.304,2.256 -6.672,2.256 h -6.816 z m 4.896,29.568 h 2.256 q 2.064,0 2.928,-1.008 0.864,-1.056 0.864,-3.264 v -16.464 q 0,-2.016 -0.816,-3.12 -0.816,-1.104 -2.976,-1.104 h -2.256 z"
       style="font-size:48px;letter-spacing:3.09597063px;fill:#000006;fill-opacity:1;stroke:none;stroke-opacity:1"
       id="path945" />
    <path
       d="m -27.644853,233.37695 h 14.592 v 4.608 h -9.696 v 10.032 h 8.448 v 4.608 h -8.448 v 10.032 h 9.696 v 4.896 h -14.592 z"
       style="font-size:48px;letter-spacing:3.09597063px;fill:#000006;fill-opacity:1;stroke:none;stroke-opacity:1"
       id="path947" />
    <path
       d="m -6.8301248,233.37695 h 4.896 v 29.28 h 9.696 v 4.896 h -14.592 z"
       style="font-size:48px;letter-spacing:3.09597063px;fill:#000006;fill-opacity:1;stroke:none;stroke-opacity:1"
       id="path949" />
    <path
       d="m 21.472603,243.21695 h -0.096 l -2.4,12.384 h 4.896 z m -2.064,-9.84 h 4.08 l 7.632,34.176 h -4.896 l -1.44,-7.344 h -6.672 l -1.44,7.344 h -4.896 z"
       style="font-size:48px;letter-spacing:3.09597063px;fill:#000006;fill-opacity:1;stroke:none;stroke-opacity:1"
       id="path951" />
    <path
       d="m 38.515581,253.10495 -6.72,-19.728 h 5.184 l 3.936,13.584 h 0.096 l 3.936,-13.584 h 5.184 l -6.72,19.728 v 14.448 h -4.896 z"
       style="font-size:48px;letter-spacing:3.09597063px;fill:#000006;fill-opacity:1;stroke:none;stroke-opacity:1"
       id="path953" />
    <path
       d="m 67.710006,233.37695 h 7.344 q 2.016,0 3.552,0.528 1.536,0.528 2.784,1.872 1.248,1.344 1.728,3.168 0.48,1.776 0.48,4.848 0,2.256 -0.288,3.888 -0.24,1.584 -1.104,2.976 -1.008,1.68 -2.688,2.64 -1.68,0.912 -4.416,0.912 h -2.496 v 13.344 h -4.896 z m 4.896,16.224 h 2.352 q 1.488,0 2.304,-0.432 0.816,-0.432 1.2,-1.152 0.384,-0.768 0.432,-1.824 0.096,-1.056 0.096,-2.352 0,-1.2 -0.096,-2.256 -0.048,-1.104 -0.432,-1.872 -0.336,-0.816 -1.104,-1.248 -0.768,-0.48 -2.208,-0.48 h -2.544 z"
       style="font-size:48px;letter-spacing:3.09597063px;fill:#000006;fill-opacity:1;stroke:none;stroke-opacity:1"
       id="path955" />
    <path
       d="m 95.201984,248.64095 h 2.784 q 1.296,0 2.063996,-0.336 0.768,-0.384 1.152,-1.056 0.432,-0.672 0.576,-1.632 0.144,-1.008 0.144,-2.304 0,-1.296 -0.144,-2.256 -0.144,-1.008 -0.624,-1.68 -0.432,-0.72 -1.247996,-1.056 -0.816,-0.336 -2.16,-0.336 h -2.544 z m -4.896,-15.264 h 7.872 q 8.639996,0 8.639996,10.032 0,2.976 -0.96,5.136 -0.912,2.112 -3.264,3.408 l 5.28,15.6 h -5.184 l -4.559996,-14.592 h -2.928 v 14.592 h -4.896 z"
       style="font-size:48px;letter-spacing:3.09597063px;fill:#000006;fill-opacity:1;stroke:none;stroke-opacity:1"
       id="path957" />
    <path
       d="m 113.55146,241.44095 q 0,-2.064 0.72,-3.648 0.72,-1.584 1.872,-2.592 1.2,-1.056 2.64,-1.584 1.488,-0.528 2.976,-0.528 1.488,0 2.928,0.528 1.488,0.528 2.64,1.584 1.2,1.008 1.92,2.592 0.72,1.584 0.72,3.648 v 18.048 q 0,2.112 -0.72,3.696 -0.72,1.536 -1.92,2.592 -1.152,1.008 -2.64,1.536 -1.44,0.528 -2.928,0.528 -1.488,0 -2.976,-0.528 -1.44,-0.528 -2.64,-1.536 -1.152,-1.056 -1.872,-2.592 -0.72,-1.584 -0.72,-3.696 z m 4.896,18.048 q 0,1.776 0.96,2.64 1.008,0.816 2.352,0.816 1.344,0 2.304,-0.816 1.008,-0.864 1.008,-2.64 v -18.048 q 0,-1.776 -1.008,-2.592 -0.96,-0.864 -2.304,-0.864 -1.344,0 -2.352,0.864 -0.96,0.816 -0.96,2.592 z"
       style="font-size:48px;letter-spacing:3.09597063px;fill:#000006;fill-opacity:1;stroke:none;stroke-opacity:1"
       id="path959" />
    <path
       d="m 140.02641,237.98495 h -5.664 v -4.608 h 16.224 v 4.608 h -5.664 v 29.568 h -4.896 z"
       style="font-size:48px;letter-spacing:3.09597063px;fill:#000006;fill-opacity:1;stroke:none;stroke-opacity:1"
       id="path961" />
    <path
       d="m 155.84389,233.37695 h 14.592 v 4.608 h -9.696 v 10.032 h 8.448 v 4.608 h -8.448 v 10.032 h 9.696 v 4.896 h -14.592 z"
       style="font-size:48px;letter-spacing:3.09597063px;fill:#000006;fill-opacity:1;stroke:none;stroke-opacity:1"
       id="path963" />
    <path
       d="m 192.21061,259.92095 q 0,1.584 -0.624,3.024 -0.576,1.44 -1.632,2.544 -1.056,1.056 -2.496,1.728 -1.392,0.624 -3.024,0.624 -1.392,0 -2.832,-0.384 -1.44,-0.384 -2.592,-1.296 -1.152,-0.96 -1.92,-2.496 -0.72,-1.536 -0.72,-3.888 v -18.816 q 0,-1.68 0.576,-3.12 0.576,-1.44 1.632,-2.496 1.056,-1.056 2.496,-1.632 1.488,-0.624 3.264,-0.624 1.68,0 3.12,0.624 1.44,0.576 2.496,1.68 1.056,1.056 1.632,2.592 0.624,1.488 0.624,3.264 v 1.92 h -4.896 v -1.632 q 0,-1.44 -0.816,-2.496 -0.816,-1.056 -2.208,-1.056 -1.824,0 -2.448,1.152 -0.576,1.104 -0.576,2.832 v 17.472 q 0,1.488 0.624,2.496 0.672,1.008 2.352,1.008 0.48,0 1.008,-0.144 0.576,-0.192 1.008,-0.576 0.48,-0.384 0.768,-1.056 0.288,-0.672 0.288,-1.68 v -1.68 h 4.896 z"
       style="font-size:48px;letter-spacing:3.09597063px;fill:#000006;fill-opacity:1;stroke:none;stroke-opacity:1"
       id="path965" />
    <path
       d="m 202.47056,237.98495 h -5.664 v -4.608 h 16.224 v 4.608 h -5.664 v 29.568 h -4.896 z"
       style="font-size:48px;letter-spacing:3.09597063px;fill:#000006;fill-opacity:1;stroke:none;stroke-opacity:1"
       id="path967" />
    <path
       d="m 218.43207,233.37695 h 4.896 v 34.176 h -4.896 z"
       style="font-size:48px;letter-spacing:3.09597063px;fill:#000006;fill-opacity:1;stroke:none;stroke-opacity:1"
       id="path969" />
    <path
       d="m 230.84602,241.44095 q 0,-2.064 0.72,-3.648 0.72,-1.584 1.872,-2.592 1.2,-1.056 2.64,-1.584 1.488,-0.528 2.976,-0.528 1.488,0 2.928,0.528 1.488,0.528 2.64,1.584 1.2,1.008 1.92,2.592 0.72,1.584 0.72,3.648 v 18.048 q 0,2.112 -0.72,3.696 -0.72,1.536 -1.92,2.592 -1.152,1.008 -2.64,1.536 -1.44,0.528 -2.928,0.528 -1.488,0 -2.976,-0.528 -1.44,-0.528 -2.64,-1.536 -1.152,-1.056 -1.872,-2.592 -0.72,-1.584 -0.72,-3.696 z m 4.896,18.048 q 0,1.776 0.96,2.64 1.008,0.816 2.352,0.816 1.344,0 2.304,-0.816 1.008,-0.864 1.008,-2.64 v -18.048 q 0,-1.776 -1.008,-2.592 -0.96,-0.864 -2.304,-0.864 -1.344,0 -2.352,0.864 -0.96,0.816 -0.96,2.592 z"
       style="font-size:48px;letter-spacing:3.09597063px;fill:#000006;fill-opacity:1;stroke:none;stroke-opacity:1"
       id="path971" />
    <path
       d="m 254.47546,233.37695 h 4.704 l 7.392,20.592 h 0.096 v -20.592 h 4.896 v 34.176 h -4.608 l -7.488,-20.544 h -0.096 v 20.544 h -4.896 z"
       style="font-size:48px;letter-spacing:3.09597063px;fill:#000006;fill-opacity:1;stroke:none;stroke-opacity:1"
       id="path973" />
  </g>
</svg>
